<svg xmlns="http://www.w3.org/2000/svg" width="60" height="6" viewBox="0 0 81.7965 13.2352"><defs><style>.cls-1{isolation:isolate;}.cls-2{fill:#e8887e;}.cls-3{fill:#aaddf9;}.cls-4{fill:#de3f2c;}.cls-5{fill:#f3c241;}.cls-6{fill:#e36831;}.cls-7{fill:#eea840;}.cls-8,.cls-9{fill:#fffad0;mix-blend-mode:overlay;}.cls-8{opacity:0.5;}.cls-9{opacity:0.8;}.cls-10{fill:#3b3d3f;}.cls-11{fill:#27292c;}.cls-12{fill:#b7b9bb;}.cls-13{fill:#626467;}.cls-14{fill:#393c3e;}.cls-15{fill:#2e3032;}.cls-16,.cls-18{fill:#adafb2;}.cls-16{mix-blend-mode:multiply;opacity:0.9;}.cls-17{fill:none;}.cls-18{mix-blend-mode:screen;}</style></defs><g class="cls-1"><g id="Layer_2" data-name="Layer 2"><g id="Layer_1-2" data-name="Layer 1"><path class="cls-2" d="M23.2473,2.4319a22.5376,22.5376,0,0,0,3.3568-.0855c.5519-.0336,1.1033-.0573,1.6511-.1228a8.0854,8.0854,0,0,0,1.4222-.17c-.0117.0029-.002.0141.0059.0112a.2536.2536,0,0,0,.1359-.048c.0116-.0079.0116-.0219-.002-.0254a10.6534,10.6534,0,0,0-2.7859-.0432,23.022,23.022,0,0,0-3.7647.222C23.0958,2.2017,23.0337,2.4129,23.2473,2.4319Z"/><path class="cls-3" d="M23.0978,3.598c-.274-.0181-.55-.039-.8236-.0609a13.2525,13.2525,0,0,0-1.7584.0614c-.1962.0213-.2409.2613-.0194.2835a13.9188,13.9188,0,0,0,1.6884.0627c.4893-.0569.979-.1133,1.4683-.1734.3109-.035.6179-.0894.9269-.1467C24.0865,3.6241,23.591,3.6329,23.0978,3.598Z"/><path class="cls-4" d="M12.86,5.1718c1.628.0846,3.2618.1827,4.8935.1376a25.8768,25.8768,0,0,0,4.4333-.2861c-.012.0039-.01.0169.0017.0156.039-.0059.0271-.0054.0718-.0282a.0093.0093,0,0,0-.002-.0166,6.995,6.995,0,0,0-1.6432-.1166c-.8628-.0392-1.7271-.033-2.5914-.0252-1.7154.0146-3.4269-.0952-5.1421-.0277C12.6387,4.8328,12.592,5.1573,12.86,5.1718Z"/><path class="cls-5" d="M18.0275,3.36c-.5382-.0612-1.0742-.1161-1.6144-.166-.0311-.0035-.06-.0055-.0912-.0073a12.7668,12.7668,0,0,0-1.7891.0262c-.1828.0175-.21.2252-.0157.2569a25.3628,25.3628,0,0,0,4.8.07l.006-.0025A8.09,8.09,0,0,0,18.0275,3.36Z"/><path class="cls-4" d="M18.7773,2.4945a9.2168,9.2168,0,0,0,1.6764.1068c.0894-.0029.1788-.0067.2662-.01.46-.0641.919-.1291,1.3812-.1865a6.4,6.4,0,0,0-1.216-.0684A15.9777,15.9777,0,0,0,18.7909,2.28C18.6354,2.2925,18.6161,2.4663,18.7773,2.4945Z"/><path class="cls-3" d="M19.55,8.4142a14.0544,14.0544,0,0,0-2.2688-.326c-.1127-.017-.2215-.031-.3323-.047-.81-.0811-1.622-.1535-2.4282-.2079-.1322-.0077-.2837.1729-.0971.2229a13.689,13.689,0,0,0,2.8109.3817c.5186.0326,1.0372.0466,1.556.0646.1592.0053.2894,0,.4488-.0083C19.197,8.4947,19.428,8.4481,19.55,8.4142Z"/><path class="cls-2" d="M13.2835,6.7551c-.5419-.065-1.0839-.1462-1.6258-.2137-.7868-.0937-1.58-.1533-2.36-.29-.0835.0462-.1242.1476.006.184a14.8792,14.8792,0,0,0,2.4339.4551c.1147,0,.2275.0039.342.0044.7965.0087,1.6161.0564,2.4223,0C14.1,6.8187,13.6759,6.8018,13.2835,6.7551Z"/><path class="cls-4" d="M16.7064,8.9012a7.8319,7.8319,0,0,0,1.896.2365A6.5252,6.5252,0,0,0,20.4033,9.05c.0233-.0053.0176-.03-.002-.0334a21.8816,21.8816,0,0,0-3.6365-.3516C16.6249,8.6667,16.5432,8.8561,16.7064,8.9012Z"/><path class="cls-2" d="M19.5233,10.3092a31.223,31.223,0,0,0,4.6563.2176c.6547,0,1.3094-.0185,1.9621-.035.5752-.0122,1.1385-.1506,1.7077-.1686.004.001.0057-.0018.01-.0023-.0874-.0142-.1768-.03-.2643-.0385-.0057,0-.0057,0,.002-.001-.3283-.01-.6547-.01-.983-.0316-.7791-.0529-1.554-.0956-2.3331-.1281a42.09,42.09,0,0,0-4.742-.0651C19.3582,10.0688,19.3328,10.28,19.5233,10.3092Z"/><path class="cls-5" d="M21.0756,9.3836a6.6911,6.6911,0,0,0,1.0138.1306c.3884-.0035.7771-.018,1.1638-.06a3.612,3.612,0,0,0-.713-.1251,6.24,6.24,0,0,0-1.4239-.1166C21.0229,9.2179,20.9549,9.3582,21.0756,9.3836Z"/><path class="cls-4" d="M28.4147,11.85a8.5873,8.5873,0,0,0,1.5.1345,14.507,14.507,0,0,0,2.1389-.2827,9.3716,9.3716,0,0,0-1.3461-.0422c-.76-.017-1.5193-.1306-2.277-.0758C28.2359,11.5991,28.2185,11.8138,28.4147,11.85Z"/><path class="cls-5" d="M23.2105,11.0411a28.3622,28.3622,0,0,0,3.4383.1544c.6021-.0078,1.2006-.03,1.8007-.0841.2992-.027.6005-.047.8995-.0834.1475-.02.2933-.0409.4391-.0622.0894-.0121.3107-.0744.0855-.0089-.006.0015-.002.0075.002.007a1.26,1.26,0,0,0,.2272-.0457c.0214-.0045.0194-.0243.0057-.0335-.3164-.0447-.6566-.0194-.9691-.0336-.2295.01-.4567.0244-.6743.0214-.6-.0053-1.1986.0325-1.7969.0243-1.1479-.0136-2.2981-.0835-3.4443-.0457C23.0861,10.8551,23.0645,11.027,23.2105,11.0411Z"/><path class="cls-3" d="M32.3155,12.7753a11.8925,11.8925,0,0,0,1.9911.0466c.3924-.0237.7811-.0684,1.1695-.1112a10.9342,10.9342,0,0,1,1.3327-.1966c.0214.0018.0484-.03.0154-.0369a8.0451,8.0451,0,0,0-1.8473.0057c-.8782.0312-1.7718-.0266-2.646.0837C32.1853,12.584,32.1523,12.7588,32.3155,12.7753Z"/><path class="cls-2" d="M34.0833,11.8739a4.4184,4.4184,0,0,0,.7011.0477c.2663-.005.5032-.1068.7712-.0884.0253.0024.0546-.0355.0194-.0423a2.5729,2.5729,0,0,0-.6565-.0442c-.2759.0164-.5516-.0039-.8275.0244C34.0172,11.7773,34.0036,11.8647,34.0833,11.8739Z"/><path class="cls-5" d="M30.2329,1.5679a22.5461,22.5461,0,0,0,4.4738-.2511c-.0077.001-.01.0116,0,.01.0427.0014.0874.0014.13.0024.0157-.0024.037-.0228.012-.03a8.9594,8.9594,0,0,0-1.9427-.0315,24.72,24.72,0,0,0-2.6615.1156C30.12,1.3983,30.0872,1.5582,30.2329,1.5679Z"/><path class="cls-4" d="M27.6006,1.1176c-.3612-.0087-.7245-.0194-1.0839-.0276-.2369.0326-.4739.0636-.7071.1015-.1515.0247-.2019.2282-.0156.2316a23.2388,23.2388,0,0,0,2.3505-.0781c.379-.0292.7557-.0938,1.1325-.134.2138-.0219.4277-.0341.6413-.0526.0134-.0018.1592-.0354.27-.0632C29.3257,1.0866,28.4634,1.1366,27.6006,1.1176Z"/><path class="cls-2" d="M15.063,10.9463A22.9008,22.9008,0,0,1,18.4179,10.9c.55.0132,1.1034.0165,1.6513.06a7.9659,7.9659,0,0,1,1.4259.1142c-.0117-.0029-.004-.0161.0057-.0111a.2549.2549,0,0,1,.1381.0422.0131.0131,0,0,1-.004.0242,10.643,10.643,0,0,1-2.7836.1554,23.5723,23.5723,0,0,1-3.7669-.0748C14.9135,11.1833,14.8492,10.9741,15.063,10.9463Z"/><path class="cls-3" d="M14.8939,9.7872c-.2737.03-.5477.062-.8216.0921a12.8613,12.8613,0,0,1-1.7579.01c-.1982-.0154-.2449-.252-.0254-.2827a14.5644,14.5644,0,0,1,1.6879-.1316c.49.0405.981.0762,1.4728.1163.3107.025.6177.0659.9264.11C15.8828,9.7226,15.3876,9.7351,14.8939,9.7872Z"/><path class="cls-4" d="M4.637,8.6161c1.6278-.1495,3.26-.31,4.89-.3288a25.5581,25.5581,0,0,1,4.437.1108c-.01-.0024-.01-.0151.004-.0136.0367.0034.0253.0034.07.0247.0077.0025.0057.0117-.0018.0152a7.0555,7.0555,0,0,1-1.64.185c-.8645.0708-1.7271.0961-2.5914.1252-1.7154.0507-3.4229.2287-5.14.2287C4.4214,8.9638,4.3688,8.642,4.637,8.6161Z"/><path class="cls-5" d="M9.8278,10.2238c-.5345.0834-1.0724.16-1.61.2311-.0293.0048-.0623.0068-.0914.013a13.9816,13.9816,0,0,1-1.7872.0427c-.1828-.0115-.2136-.217-.0214-.2563a25.2382,25.2382,0,0,1,4.7984-.26l.0057.0024A7.9009,7.9009,0,0,1,9.8278,10.2238Z"/><path class="cls-4" d="M10.5912,11.061a9.1206,9.1206,0,0,1,1.6745-.171c.0894-.0028.1788-.0019.268-.001.4585.0452.9189.0913,1.3811.1311a6.5887,6.5887,0,0,1-1.214.1162,16.3786,16.3786,0,0,1-2.0941.1393C10.4512,11.27,10.4318,11.0969,10.5912,11.061Z"/><path class="cls-5" d="M22.0566,11.5374a22.5638,22.5638,0,0,1,4.4755.0757c-.0077-.0015-.0114-.0145,0-.0135.0427-.001.0854-.0025.13-.0039.0157-.0005.037.0219.014.0281a9.1092,9.1092,0,0,1-1.9427.1064,24.4066,24.4066,0,0,1-2.6615-.0078C21.9459,11.7132,21.9106,11.5539,22.0566,11.5374Z"/><path class="cls-4" d="M19.43,12.092c-.3591.0228-.7207.0451-1.0818.0695-.2369-.0209-.4742-.0457-.7073-.0743-.1515-.0171-.2057-.22-.0194-.2307a23.39,23.39,0,0,1,2.3505-.0141c.379.0156.7577.063,1.1365.0869.2136.0146.4274.02.6412.03.0115,0,.1573.0293.27.0536C21.157,12.0527,20.2925,12.04,19.43,12.092Z"/><path class="cls-2" d="M10.5833,4.898a22.7956,22.7956,0,0,0,3.3569.0146c.55-.0166,1.1014-.0258,1.6491-.0748a8.3217,8.3217,0,0,0,1.4241-.1253c-.0117.0009-.004.0112.0059.0087a.239.239,0,0,0,.1379-.0451c.01-.0045.01-.019-.004-.0248a10.6277,10.6277,0,0,0-2.7856-.1253,23.2354,23.2354,0,0,0-3.7669.1083C10.4318,4.6625,10.37,4.8723,10.5833,4.898Z"/><path class="cls-3" d="M10.4258,6.06c-.2737-.0287-.55-.0574-.8235-.0836a12.9689,12.9689,0,0,0-1.76.0058c-.1943.0155-.2409.2526-.0194.2836a14.2538,14.2538,0,0,0,1.6879.1131c.49-.0432.981-.085,1.4708-.1277.3107-.03.6177-.0733.9263-.121C11.4128,6.116,10.9176,6.1073,10.4258,6.06Z"/><path class="cls-4" d="M.1807,7.3263c1.628.1334,3.2617.2817,4.8934.2831a25.421,25.421,0,0,0,4.4348-.153c-.0114.0029-.0114.018.002.014.039-.0028.0273-.0008.072-.0256.006-.0024.004-.0126-.004-.0136a7.0646,7.0646,0,0,0-1.6414-.169c-.8626-.0622-1.7269-.0816-2.5914-.101-1.7154-.036-3.4249-.1982-5.14-.1818C-.0389,6.98-.0873,7.3059.1807,7.3263Z"/><path class="cls-5" d="M5.3558,5.67c-.5362-.08-1.0744-.15-1.6124-.2152-.0293-.0024-.0621-.0077-.0914-.0112a12.8949,12.8949,0,0,0-1.7892-.0252c-.1806.0127-.21.2157-.0174.2554a25.3573,25.3573,0,0,0,4.8.2129L6.65,5.8854A8.1844,8.1844,0,0,0,5.3558,5.67Z"/><path class="cls-4" d="M6.1093,4.8251a8.967,8.967,0,0,0,1.6784.1565c.0875,0,.1769,0,.2663,0q.6877-.0772,1.3814-.1463a6.3778,6.3778,0,0,0-1.2143-.1024,16.2451,16.2451,0,0,0-2.0959-.1214C5.97,4.6177,5.95,4.7931,6.1093,4.8251Z"/><path class="cls-5" d="M17.5709,4.241a22.4142,22.4142,0,0,0,4.4758-.1158c-.0077,0-.0117.0112-.002.0107.0447.002.0894.0045.1321.003.0157.0025.037-.0214.0117-.0277a9.2322,9.2322,0,0,0-1.9424-.0888,24.6774,24.6774,0,0,0-2.6615.0339C17.4582,4.0675,17.4272,4.2273,17.5709,4.241Z"/><path class="cls-4" d="M14.9386,3.7105c-.3592-.0179-.7208-.0383-1.0819-.0572-.2369.0218-.4739.05-.7073.08-.1495.019-.2019.2226-.0154.2313.7868.04,1.5637.029,2.3485-.0082.381-.02.7557-.0706,1.1385-.0976.21-.0167.4254-.0254.6393-.0375.0114.0005.1572-.03.27-.0549C16.6657,3.7353,15.8031,3.7567,14.9386,3.7105Z"/><path class="cls-4" d="M14.84,6.5279c1.2741.2875,2.5293.5541,3.8.74q-1.3083-.048-2.6244-.1438c-.0467-.0038-.1381.0691-.0621.0991a6.3733,6.3733,0,0,0,1.5383.3415,23.8129,23.8129,0,0,0,2.4322.4278c.8062.0491,1.5948.2069,2.3856.2545-.4739.0864-.95.1671-1.4222.2714a.0487.0487,0,0,0,.012.0966c.9711.01,1.9774.307,2.9488.3969a10.6645,10.6645,0,0,0,2.04.0738,5.0208,5.0208,0,0,1-1.4764.3162c-.07.0081-.13.1082-.0331.1316a17.0173,17.0173,0,0,0,1.9971.2734,2.569,2.569,0,0,0,1.4278-.4521c.6468-.3492,1.0411.2616,1.6318.4662a3.1485,3.1485,0,0,1-.5847.0641c-.0313,0-.0934.0393-.0427.067a5.4961,5.4961,0,0,0,3.7746.5629,1.9283,1.9283,0,0,1-.61.3312c-.072.0242-.0586.1029.0115.1121a2.8912,2.8912,0,0,0,1.4782-.218c.2332-.0981.47-.2223.6937-.3438a1.3951,1.3951,0,0,1,1.3637.1093c.3554.1567.7555.4987,1.1773.7352a5.4043,5.4043,0,0,1-.8509.0642c-.0544-.0005-.1749.08-.0778.1268A12.8006,12.8006,0,0,0,38.2968,12.49a2.6493,2.6493,0,0,0,1.1635-.0642,4.9775,4.9775,0,0,0,.7461-.2379.7413.7413,0,0,0,.1436-.0724,2.5667,2.5667,0,0,0-.2757.7,2.5218,2.5218,0,0,1,1.2006-.7431A7.9564,7.9564,0,0,1,42.06,11.88c.2409-.0767.48-.1418.6994-.2026a5.4917,5.4917,0,0,0,2.3368-1.0635A5.9131,5.9131,0,0,0,46.751,5.6246,3.8669,3.8669,0,0,0,45.5174,3.476,7.3569,7.3569,0,0,0,43.25,1.7636a4.0169,4.0169,0,0,0-2.193-.2623c-.4625.0519-.9112.1356-1.3677.2156a3.3,3.3,0,0,1-1.3658-.1005c-.0561-.014-.1748.0068-.1629.0918a1.1758,1.1758,0,0,0,.3457.7042,4.2769,4.2769,0,0,1-1.74-.5542c-.56-.2524-1.2473-.4647-1.6727.1386-.1731.2461-.274.7061-.5362.8673-.1009.06-.305-.1195-.3865-.1779a1.4349,1.4349,0,0,0-.8082-.266,2.311,2.311,0,0,0-.7733.1866c-.0542.028-.1088.0591-.163.0931a2.1491,2.1491,0,0,1-.83.3652A2.3636,2.3636,0,0,1,30.2426,2.76a1.3415,1.3415,0,0,0,.2953.4979,6.3173,6.3173,0,0,0-1.28-.2468,2.9511,2.9511,0,0,0-1.0118.2089c-.4391.2219-.8742.4472-1.327.6367.2119.048.4274.0909.643.1234a8.5856,8.5856,0,0,0-.93.3813,9.1727,9.1727,0,0,1-2.0147.7006,3.0845,3.0845,0,0,0-1.07.2367c-.0233.0144-.0465.0514-.0194.0732a1.3879,1.3879,0,0,0,.7325.21c-.0952.029-.1846.0534-.26.0748-.5189.13-1.0451.1962-1.566.3126-.5786.13-1.1772.2011-1.7579.3177-.4758.0976-.9517.0471-1.4221.1378-.0348.005-.1068.0506-.0581.0919a1.5843,1.5843,0,0,0,.377.2209,32.2044,32.2044,0,0,1-4.66-.3682C14.81,6.3541,14.7133,6.5006,14.84,6.5279Z"/><path class="cls-6" d="M31.1052,3.0948a1.6434,1.6434,0,0,0,1.3657.0791,1.7136,1.7136,0,0,1,1.754.1186c.0313.0232.0176.0534-.0134.0664a23.9245,23.9245,0,0,0-3.184,1.82c.6546-.085,1.288-.286,1.9367-.408.0387-.0087.1147.0331.06.0715a8.2265,8.2265,0,0,1-1.7326,1.0242,7.9465,7.9465,0,0,1-.9656.319c-.268.0609-.5553.0782-.8216.155a8.1938,8.1938,0,0,0,2.1717.1224c.064-.0049.1147.068.0333.0806-.7384.1248-1.4629.3157-2.207.4089a9.7743,9.7743,0,0,0-1.8786.3458c.6994.1481,1.4241.0243,2.1292.155.0407.0081.0661.0645.0137.0792-.9676.2776-1.9777.3549-2.9568.5831a14.3247,14.3247,0,0,1,2.203.528,5.1828,5.1828,0,0,0,2.3254.4292c.0368-.0047.12.038.06.0725a2.9927,2.9927,0,0,1-1.014.3341,5.9485,5.9485,0,0,0,1.91.0412,5.8875,5.8875,0,0,1,1.5637-.2024c.037.0034.0914.0392.0427.0718-.1922.1374-.3981.2462-.5943.3745.3671.0044.7324-.0292,1.1.0077.0581.0068.0894.0719.0154.0841-.6194.0956-.9985.662-1.57.8838a4.7327,4.7327,0,0,1-.8682.22v-.0015a2.8912,2.8912,0,0,0,1.4782-.218c.2332-.0981.47-.2223.6937-.3438a1.3951,1.3951,0,0,1,1.3637.1093c.3554.1567.7555.4987,1.1773.7352a5.4043,5.4043,0,0,1-.8509.0642c-.0544-.0005-.1749.08-.0778.1268A12.8006,12.8006,0,0,0,38.2968,12.49a2.6493,2.6493,0,0,0,1.1635-.0642,4.9775,4.9775,0,0,0,.7461-.2379.7413.7413,0,0,0,.1436-.0724,2.5667,2.5667,0,0,0-.2757.7,2.5218,2.5218,0,0,1,1.2006-.7431A7.9564,7.9564,0,0,1,42.06,11.88c.2409-.0767.48-.1418.6994-.2026a5.4917,5.4917,0,0,0,2.3368-1.0635A5.9131,5.9131,0,0,0,46.751,5.6246,3.8669,3.8669,0,0,0,45.5174,3.476,7.3569,7.3569,0,0,0,43.25,1.7636a4.0169,4.0169,0,0,0-2.193-.2623c-.4625.0519-.9112.1356-1.3677.2156a3.3,3.3,0,0,1-1.3658-.1005c-.0561-.014-.1748.0068-.1629.0918a1.1758,1.1758,0,0,0,.3457.7042,4.2769,4.2769,0,0,1-1.74-.5542c-.56-.2524-1.2473-.4647-1.6727.1386-.1731.2461-.274.7061-.5362.8673-.1009.06-.305-.1195-.3865-.1779a1.4349,1.4349,0,0,0-.8082-.266,2.311,2.311,0,0,0-.7733.1866c-.0542.028-.1088.0591-.163.0931a2.1491,2.1491,0,0,1-.83.3652,1.8543,1.8543,0,0,1-.62-.0349C31.02,3.0531,31.0625,3.0739,31.1052,3.0948Z"/><path class="cls-7" d="M29.079,8.0882c-.0816.018-.0583.105.0137.1171a30.987,30.987,0,0,0,3.1627.3463,9.785,9.785,0,0,0,1.7658-.0286,1.2235,1.2235,0,0,0-.2585.1525c-.0428.0392.0156.0718.0524.0718.1808-.0067.3671.0092.5518.0106a1.754,1.754,0,0,0-.3069.16c-.0584.0369-.0351.1054.0327.1092a16.527,16.527,0,0,1,2.1235.4352c.1361.0277.2914.0767.4545.1171a1.7052,1.7052,0,0,0-.6974.1553.0551.0551,0,0,0-.0077.0991,9.9559,9.9559,0,0,0,2.0085.796,2.287,2.287,0,0,0,.5345.0428,2.2773,2.2773,0,0,0-.3616.8168,1.0786,1.0786,0,0,1,.5578-.3172.9245.9245,0,0,1,.2817.0044.3173.3173,0,0,1,.1435.0282l.0194.0083a1.8188,1.8188,0,0,1,.3673.1568c.1572.0651.3147.13.47.1962a4.2007,4.2007,0,0,0,1.3888.4333,3.3353,3.3353,0,0,0,1.7018-.2711,1.78,1.78,0,0,1-.3381.4522c.1732-.1667.7345-.1992.9694-.2885a4.1629,4.1629,0,0,0,.8743-.4492,5.2354,5.2354,0,0,0,1.3441-1.4268,6.1154,6.1154,0,0,0,.9092-4.8649,5.9294,5.9294,0,0,0-3.1723-3.8265,5.4207,5.4207,0,0,0-.979-.3631A13.1641,13.1641,0,0,0,41.2826.9432,2.762,2.762,0,0,1,40.428.8451a3.2238,3.2238,0,0,1-.4121-.1738,6.1047,6.1047,0,0,1,.4781.53c.0348.0428-.041.0684-.072.0607-.2429-.0574-.4721-.1545-.7168-.2191a1.201,1.201,0,0,0-.8549.0631c-.0233.0093-.0427.0176-.064.0283-.06.0451-.1185.0893-.1729.1292a1.0911,1.0911,0,0,1-.5886.18c-.1535.0584-.309.1093-.4664.156a1.7186,1.7186,0,0,0,.4955.5736.8318.8318,0,0,0,.0777.0524.9065.9065,0,0,1-.5866-.0213c-.074-.0307-.1456-.0636-.22-.102a1.57,1.57,0,0,0-1.1092.3419c-.0487.0363-.6313.475-.9713.7109a2.3615,2.3615,0,0,0,.8645.1845c-.3477.193-.68.4158-1.01.6422-.5089.3477-1.0491.5969-1.56.9208a.0685.0685,0,0,0,.0368.13,9.313,9.313,0,0,0,2.0067-.2079c-.1865.0986-.375.1895-.5673.2755a11.8982,11.8982,0,0,0-1.7211.7371.0523.0523,0,0,0,.0117.0991,1.9292,1.9292,0,0,0,.643-.0392c.1165-.007.233-.0127.35-.0182a16.7577,16.7577,0,0,1-1.6241.4221c-.0856.0185-.1164.1233-.0077.1326.6624.0578,1.3365.0665,2.0048.1176-.3243.0558-.647.118-.9716.1734-.4351.0786-.8973.0986-1.3247.2059a.0614.0614,0,0,0-.0077.12,3.3194,3.3194,0,0,0,1.018.1815,15.9448,15.9448,0,0,1-2.2807.5614C30.4388,7.91,29.7335,7.93,29.079,8.0882Z"/><path class="cls-8" d="M39.8431,2.32a7.6922,7.6922,0,0,1,2.2727.3225l-1.02.235s.06-.0054.1689-.0034a3.7432,3.7432,0,0,1,1.2143-.068,3.5365,3.5365,0,0,1,2.3351,1.3366c.911,1.2612.4488,2.84-.3982,4.0274a3.3329,3.3329,0,0,0,1.1326-1.707,4.4343,4.4343,0,0,1-1.7194,3.3107s1.7017-.5581,2.4885-3.3472A6.1359,6.1359,0,0,1,43.55,11.7117a5.048,5.048,0,0,0,2.916-3.2665,5.3571,5.3571,0,0,0-1.6767-6.0533,4.7175,4.7175,0,0,0-3.3-1.1,7.5374,7.5374,0,0,1,2.4729.9627A5.5423,5.5423,0,0,0,39.8431,2.32Z"/><path class="cls-8" d="M32.8807,8.0869c-.0544.0135-.0407.0747.0077.08.61.0739,1.21.2167,1.8126.3245.408.0729.8079.1608,1.2063.2681.2041.0534.5692.0816.2021.1592-.0526.0122-.1281.0773-.0506.12a7.9143,7.9143,0,0,0,2.63.694,4.44,4.44,0,0,1-.5924.1423c-.0993.0229-.2081.1715-.0506.2064.371.0831.746.1191,1.1171.2167.0814.0238.1649.0451.2446.0666-.2719.0669-.5049.117-.5789.1388-.0388.0145-.0777.0748-.0214.1a4.5769,4.5769,0,0,0,3.9843.0281c.0933-.0417.0136-.135-.06-.1253a6.8113,6.8113,0,0,1-1.08.0811,1.7987,1.7987,0,0,0,.5188-.2822.0615.0615,0,0,0-.0312-.1048,2.7383,2.7383,0,0,0-.5807-.0311,1.9511,1.9511,0,0,0,.6177-.5265,2.28,2.28,0,0,0,.5012-.6508c.0176-.0562-.0681-.0684-.1011-.0582a7.76,7.76,0,0,1-2.5681.47c.006.002-.5926-.0175-.2682-.0752.26-.0467.5245-.05.7848-.1046a3.2427,3.2427,0,0,0,.97-.2408c.0581-.034.0271-.0947-.0293-.1a12.984,12.984,0,0,1-1.7308-.1106c-.0544-.0112-.35-.033-.2253-.0589.2563-.047.53-.0549.7906-.1014a11.7553,11.7553,0,0,0,1.3871-.3464,2.6454,2.6454,0,0,0,1.0818-.45c.039-.04.006-.0851-.0407-.087-1.1926-.083-2.4166.03-3.6112.0126-.3576-.0057-.7111-.0316-1.0645-.0586-.1147-.0107-.983-.1108-.5091-.2483a4.2935,4.2935,0,0,0,1.3617-.4225c.0544-.0433-.0037-.1005-.05-.1024a7.41,7.41,0,0,0-.8782-.034c-.1281.0559-.08.03.1438-.0782.2019-.1025.4021-.2094.6043-.3122a13.145,13.145,0,0,0,1.7813-.8092c.0506-.0355.037-.1031-.0311-.1039a12.4523,12.4523,0,0,0-1.3307.1913,7.91,7.91,0,0,0-.7985.1481,4.9586,4.9586,0,0,0-.4992.1539c.1982-.2088.4605-.3944.6547-.5846.375-.3715.7537-.7411,1.1345-1.105.0894-.0849-.0507-.1558-.1262-.1281-.2488.0923-.55.2928-.8355.4a10.2817,10.2817,0,0,0,1.4726-1.1747.1031.1031,0,0,0-.0855-.1749,3.72,3.72,0,0,0-1.5346.2963,15.5029,15.5029,0,0,0-1.78,1.2365c-.0971.0622-.0194.1563.0737.1446a4.5553,4.5553,0,0,0,.9967-.3757c-.2158.2053-.5829.3767-.7771.53-.4992.3909-1.0081.7358-1.521,1.099-.0564.0394-.0313.0981.0331.1068a2.1834,2.1834,0,0,0,.5709-.02c.239-.0295,1.03-.3238.41-.06a7.7068,7.7068,0,0,1-1.85.6561c-.1028.014-.0894.1316.0157.1238.2759-.0219.5595.0272.8392.0147.1865-.004.3691-.0554.5576-.06a1.36,1.36,0,0,0-.4178.1483,16.83,16.83,0,0,1-2.0338.488c-.0368.0112-.0447.0554-.006.0681a2.7143,2.7143,0,0,1,.5032.1927C33.7217,7.9868,33.2965,7.9906,32.8807,8.0869Z"/><path class="cls-9" d="M22.379,6.8581c.6994.0063,1.3988.0155,2.0979,0,.34-.0078.676-.0666,1.0141-.1039-.2524.0272-.6393.1379-.9443.1991a17.922,17.922,0,0,0-1.9191.3443c.1088.0282.2193.0539.33.0792a7.8281,7.8281,0,0,0,1.0414.1815c.2-.0081.3924-.02.5615-.02.6914-.0145,1.3849.0127,2.0708-.0379a4.012,4.012,0,0,0,.5887-.166,5.6406,5.6406,0,0,0-.5849-.0487c-.035-.0037-.7558.0574-.3671.0025A5.366,5.366,0,0,0,27.63,7.0154c.06-.0267.0193-.0869-.0293-.0951-.4059-.0573-.87-.18-1.27-.1938a3.4635,3.4635,0,0,0,1.0081-.1219c.2935-.0772.5866-.1462.8782-.2215.4431-.2175.88-.4493,1.3153-.6794-.1107.0043-.2215.0165-.3323.0292-.0973-.002-1.0878.0534-.73-.0065.1438-.0242.262-.03.4061-.062a8.8,8.8,0,0,0,1.3615-.3574c-.3458.0028-.6915-.0306-1.0352-.06-.0233-.0024-.0914-.031-.0547-.0641a3.1776,3.1776,0,0,1,1.4689-.8517A2.2019,2.2019,0,0,0,31.6628,3.97c.1689-.1243.3283-.2626.4855-.4031a2.5641,2.5641,0,0,1-.876.3c-.0293.0029-.0546.0019-.0817.0034a.0584.0584,0,0,0-.0213.01.165.165,0,0,1-.0447-.0093,7.5983,7.5983,0,0,1-1.286-.284.8439.8439,0,0,0-.9615.4909.7673.7673,0,0,1-.4371.4c-.2993.0718-.6062.0107-.9092.0825-.1826.0432-.3594.0934-.5382.1463.21.0819.4177.1693.6236.2679.039.0186.039.0584,0,.0744a10.6669,10.6669,0,0,1-2.9254.441,3.55,3.55,0,0,0,.7925.3754,6.6228,6.6228,0,0,1-1.593.471c-.0524.004-.1051.01-.1555.0152-.2563.0752-.5129.1544-.7732.2155q-.7107.1647-1.4335.29A5.84,5.84,0,0,0,22.379,6.8581Z"/><path class="cls-10" d="M81.5746,6.7358c.05-.0953.0911-.1773.1222-.2468-.0331-.067-.0738-.1506-.1262-.2442-.7538-1.3686-3.7165-5.4-12.7514-6.1455l-28.77.1354.0621,12.9019,28.7683-.1359C77.9087,12.17,80.8325,8.1106,81.5746,6.7358Z"/><path class="cls-11" d="M40.01,13.1381,39.95.2352a.0976.0976,0,0,1,.099-.0986L68.8192,0a20.5567,20.5567,0,0,1,9.5361,2.8557A9.6977,9.6977,0,0,1,81.658,6.1981c.0524.0956.0971.18.1282.2472a.1052.1052,0,0,1,.002.0864c-.0331.07-.0761.1534-.1282.252a9.7177,9.7177,0,0,1-3.2714,3.3715A20.5335,20.5335,0,0,1,68.8892,13.1l-28.7782.1354A.0977.0977,0,0,1,40.01,13.1381ZM40.15.3343l.0584,12.7023,28.6729-.135c2.2767-.21,9.9484-1.2817,12.6039-6.214.0407-.0747.0737-.14.1028-.1982-.0291-.0557-.0621-.1223-.1028-.1971C78.779,1.3858,71.1.3872,68.8112.1979Z"/><path class="cls-12" d="M74.4838,11.888c4.7244-1.5541,6.5292-4.1149,7.0908-5.1522.05-.0953.0911-.1788.1222-.2468-.0331-.067-.0738-.1506-.1262-.2442-.5673-1.0316-2.3992-3.5769-7.1375-5.0844Z"/><path class="cls-13" d="M74.383,11.8876,74.3323,1.1608a.0979.0979,0,0,1,.0427-.08.0929.0929,0,0,1,.0875-.0161c4.7809,1.5216,6.6243,4.0965,7.1955,5.1334.0524.0956.0971.18.1282.2472a.1049.1049,0,0,1,.002.0864c-.0331.07-.0761.1534-.1282.252-.56,1.04-2.38,3.6313-7.1469,5.198a.0925.0925,0,0,1-.0874-.0141A.1.1,0,0,1,74.383,11.8876Zm.15-10.5912L74.5809,11.75c4.6022-1.5487,6.36-4.05,6.9043-5.0625.0407-.0747.0737-.14.1028-.1982-.0291-.0557-.0621-.1223-.1028-.1971C80.9293,5.2866,79.15,2.801,74.5325,1.2964Z"/><rect class="cls-12" x="59.172" y="1.1074" width="9.6656" height="0.4137" transform="translate(-0.0056 0.3098) rotate(-0.2773)"/><path class="cls-13" d="M59.075,1.544l-.002-.4132a.0966.0966,0,0,1,.0991-.0986L68.8366.9856a.0994.0994,0,0,1,.0991.0995l.0019.4132a.0984.0984,0,0,1-.099.0991l-9.6646.0457A.0973.0973,0,0,1,59.075,1.544Zm.1962-.3142.002.2146L68.74,1.3993l-.0018-.2156Z"/><polygon class="cls-12" points="68.842 2.557 68.84 1.891 59.176 1.936 59.178 2.601 68.842 2.557"/><path class="cls-13" d="M59.0789,2.6018l-.0039-.6654a.1.1,0,0,1,.101-.0991l9.6645-.046a.1011.1011,0,0,1,.1009.0986l.002.6672a.0993.0993,0,0,1-.0989.0981l-9.6667.0462A.0993.0993,0,0,1,59.0789,2.6018Zm.1962-.5658.002.4667,9.4663-.0452-.0019-.4682Z"/><rect class="cls-12" x="59.1807" y="2.9713" width="9.6667" height="0.4141" transform="translate(-0.0132 0.2785) rotate(-0.2492)"/><path class="cls-13" d="M59.0829,3.4085l-.002-.4138a.0981.0981,0,0,1,.0989-.0986l9.6667-.0467a.1.1,0,0,1,.0989.0991l.0019.4138a.1.1,0,0,1-.099.0991l-9.6646.0457A.1.1,0,0,1,59.0829,3.4085Zm.1979-.3152v.2141l9.4683-.0437-.0019-.2146Z"/><polygon class="cls-12" points="68.852 4.42 68.85 3.755 59.184 3.801 59.188 4.467 68.852 4.42"/><path class="cls-13" d="M59.0886,4.4668l-.0039-.6659a.1.1,0,0,1,.099-.1l9.6646-.0452a.1007.1007,0,0,1,.101.1l.002.6653a.097.097,0,0,1-.0974.0981l-9.6662.0463A.098.098,0,0,1,59.0886,4.4668Zm.1942-.5658.0038.4652,9.4665-.0447-.0019-.4667Z"/><rect class="cls-12" x="59.1906" y="4.8366" width="9.6644" height="0.4127" transform="translate(-0.0249 0.3262) rotate(-0.2919)"/><path class="cls-13" d="M59.09,5.2719V4.86a.0972.0972,0,0,1,.0973-.1006l9.6662-.0462a.1.1,0,0,1,.0994.1l.002.4127a.097.097,0,0,1-.0993.0986l-9.6643.0467A.1019.1019,0,0,1,59.09,5.2719Zm.1981-.3136v.214l9.4686-.0432-.002-.215Z"/><polygon class="cls-12" points="68.862 6.235 68.858 5.619 59.192 5.664 59.197 6.279 68.862 6.235"/><path class="cls-13" d="M59.0963,6.28l-.002-.6149a.0973.0973,0,0,1,.0974-.0995L68.856,5.52a.099.099,0,0,1,.101.0982l.004.6159a.1.1,0,0,1-.0991.1l-9.6645.0456A.1.1,0,0,1,59.0963,6.28Zm.1962-.5163.002.4153,9.4683-.0422L68.7591,5.72Z"/><polygon class="cls-12" points="68.866 7.141 68.862 6.626 59.197 6.672 59.199 7.187 68.866 7.141"/><path class="cls-13" d="M59.1023,7.1864,59.1,6.6736a.0971.0971,0,0,1,.0971-.1l9.6645-.0461a.1.1,0,0,1,.1008.1l.002.5132a.1.1,0,0,1-.0988.1l-9.6648.0461A.1.1,0,0,1,59.1023,7.1864Zm.1942-.4139.004.3153,9.466-.0452-.0017-.3161Z"/><polygon class="cls-12" points="68.87 8.15 68.868 7.535 59.201 7.581 59.205 8.195 68.87 8.15"/><path class="cls-13" d="M59.1062,8.1947,59.1023,7.58a.1.1,0,0,1,.0988-.1l9.6648-.046a.1.1,0,0,1,.1008.0989l.004.6154a.1.1,0,0,1-.1009.0995l-9.6647.0467A.1.1,0,0,1,59.1062,8.1947Zm.1943-.5159.0017.4153L68.7705,8.05l-.002-.4158Z"/><rect class="cls-12" x="59.208" y="8.565" width="9.6665" height="0.463" transform="translate(-0.0318 0.235) rotate(-0.2102)"/><path class="cls-13" d="M59.11,9.0518l-.002-.4627a.1.1,0,0,1,.0991-.1011l9.6645-.0457a.1024.1024,0,0,1,.1011.1v.4638a.0989.0989,0,0,1-.0974.1l-9.6642.0457A.1007.1007,0,0,1,59.11,9.0518Zm.1962-.3651.0017.2646,9.4666-.0442-.002-.2656Z"/><polygon class="cls-12" points="68.879 9.963 68.875 9.397 59.211 9.444 59.213 10.009 68.879 9.963"/><path class="cls-13" d="M59.1157,10.0094l-.004-.5652a.0978.0978,0,0,1,.0994-.0986l9.6642-.0476a.1046.1046,0,0,1,.1014.1l.0019.5644a.0994.0994,0,0,1-.0993.1l-9.6643.0455A.096.096,0,0,1,59.1157,10.0094Zm.1942-.4666.004.3667,9.4646-.0461-.002-.3653Z"/><rect class="cls-12" x="59.2168" y="10.3783" width="9.6655" height="0.7165" transform="translate(-0.0297 0.1786) rotate(-0.1597)"/><path class="cls-13" d="M59.12,11.1174l-.004-.7155a.1.1,0,0,1,.0993-.0995l9.6663-.0452a.095.095,0,0,1,.0973.0972l.0038.7153a.0961.0961,0,0,1-.0971.1l-9.6665.0461A.0988.0988,0,0,1,59.12,11.1174Zm.1962-.6175.002.5169,9.4663-.0432-.0018-.5182Z"/><rect class="cls-12" x="59.2224" y="11.4872" width="9.6658" height="0.7153" transform="translate(-0.0329 0.1791) rotate(-0.1602)"/><path class="cls-13" d="M59.1256,12.2261l-.0039-.7159a.0968.0968,0,0,1,.0988-.0985l9.6648-.0467a.1006.1006,0,0,1,.1008.1l.004.7143a.1.1,0,0,1-.1009.1l-9.6647.0467A.1.1,0,0,1,59.1256,12.2261Zm.1943-.6168.0039.5167,9.4661-.0452-.0038-.5166Z"/><path class="cls-12" d="M68.893,13l-.0018-.4269-9.6647.0452.0019.4279,9.6509-.0452Z"/><path class="cls-13" d="M59.1293,13.0468l-.0037-.4283a.1011.1011,0,0,1,.1009-.1l9.6647-.0452a.102.102,0,0,1,.1008.1006v.4249a.0981.0981,0,0,1-.0894.0986l-.0213.0025-9.6529.0461A.0983.0983,0,0,1,59.1293,13.0468Zm.1962-.3312v.2307l9.4664-.0447v-.2292Z"/><path class="cls-12" d="M68.8346.6918,68.8326.1l-.0134-.001L59.1664.1449l.0039.592Z"/><path class="cls-13" d="M59.071.7378,59.0673.1454a.1.1,0,0,1,.0991-.1L68.8192,0c.004-.001.0154.0025.0194.0015a.1057.1057,0,0,1,.0933.0991l.002.5905a.0973.0973,0,0,1-.0993.1L59.17.8364A.0982.0982,0,0,1,59.071.7378Zm.1962-.4933.002.3938L68.7357.5932,68.7318.2Z"/><rect class="cls-14" x="40.0799" y="0.2257" width="4.1116" height="12.9015" transform="translate(-0.0287 0.1835) rotate(-0.2494)"/><path class="cls-15" d="M40.01,13.1381,39.95.2352a.0976.0976,0,0,1,.099-.0986L44.16.1167a.0969.0969,0,0,1,.0991.0986l.0621,12.9019a.1011.1011,0,0,1-.0991.1l-4.1107.0179A.0977.0977,0,0,1,40.01,13.1381ZM40.15.3343l.0584,12.7023,3.9122-.0185L44.0605.3154Z"/><path class="cls-16" d="M81.5746,6.7358c.05-.0953.0911-.1773.1222-.2468-.0331-.067-.0738-.1506-.1262-.2442-.7538-1.3686-3.7165-5.4-12.7514-6.1455l-28.77.1354.0621,12.9019,28.7683-.1359C77.9087,12.17,80.8325,8.1106,81.5746,6.7358Zm-2.92-.2327-37.1527.1748-.0253-5.3966,25.4037-.1205c1.657.0045,3.9008.1147,3.9008.1147,5.1828.6746,8.6814,3.0388,9.3885,4.2956C80.8789,6.8279,78.6548,6.5031,78.6548,6.5031Z"/><path class="cls-17" d="M81.6968,6.489a.0365.0365,0,0,1-.01.0175Z"/><path class="cls-17" d="M80.17,5.5711c-.7071-1.2568-4.2057-3.621-9.3885-4.2956,0,0-2.2438-.11-3.9008-.1147l-25.4037.1205.0253,5.3966,37.1527-.1748S80.8789,6.8279,80.17,5.5711Z"/><path class="cls-16" d="M68.8793,13.0007c9.0294-.8305,11.9532-4.89,12.6953-6.2649.0464-.0879.0834-.1647.1125-.2293-.1125.2331-1.68,3.1063-9.0642,3.8935l-32.5253.153.0134,2.5836Z"/><path class="cls-18" d="M78.472,4.8062A13.675,13.675,0,0,0,74.1031,3.01a47.0368,47.0368,0,0,0-8.9691-.763l-22.6956.1078-.13,1.3112S72.9569,2.5164,78.472,4.8062Z"/></g></g></g></svg>