<svg xmlns="http://www.w3.org/2000/svg" width="444.8652" height="444.8652" viewBox="0 0 444.8652 444.8652"><defs><style>.cls-1{fill:#fff;}</style></defs><g id="Layer_2" data-name="Layer 2"><g id="Слой_1" data-name="Слой 1"><path class="cls-1" d="M222.4326,427.4131c-113.0264,0-204.9795-91.9551-204.9795-204.98s91.9531-204.9795,204.98-204.9795,204.98,91.9541,204.98,204.98S335.458,427.4131,222.4326,427.4131Zm0-407.9483c-111.918,0-202.9678,91.05-202.9678,202.9678S110.5146,425.4,222.4326,425.4,425.4,334.3506,425.4,222.4326,334.35,19.4648,222.4326,19.4648Z"/><path class="cls-1" d="M222.4326,197.2148a25.2173,25.2173,0,1,1-25.2178,25.2178,25.2462,25.2462,0,0,1,25.2178-25.2178Zm0-8.5556a33.773,33.773,0,1,0,33.7725,33.7734,33.7729,33.7729,0,0,0-33.7725-33.7734Z"/><path class="cls-1" d="M440.5869,226.71H330.67a4.2773,4.2773,0,1,1,0-8.5546h109.917a4.2773,4.2773,0,1,1,0,8.5546Z"/><path class="cls-1" d="M115.3779,226.71H4.2773a4.2773,4.2773,0,0,1,0-8.5546H115.3779a4.2773,4.2773,0,1,1,0,8.5546Z"/><rect class="cls-1" x="182.9492" y="163.8252" width="2.0127" height="19.539"/><rect class="cls-1" x="164.418" y="182.3584" width="19.539" height="2.0117"/><rect class="cls-1" x="260.9092" y="182.3584" width="19.5371" height="2.0117"/><rect class="cls-1" x="259.9033" y="163.8252" width="2.0127" height="19.539"/><rect class="cls-1" x="259.9033" y="261.501" width="2.0127" height="19.5371"/><rect class="cls-1" x="260.9092" y="260.4951" width="19.5371" height="2.0117"/><rect class="cls-1" x="164.418" y="260.4951" width="19.539" height="2.0117"/><rect class="cls-1" x="182.9512" y="261.501" width="2.0126" height="19.5371"/><path class="cls-1" d="M222.4326,35.9287c102.8389,0,186.5039,83.665,186.5039,186.5039s-83.665,186.5039-186.5039,186.5039S35.9287,325.2705,35.9287,222.4326,119.5937,35.9287,222.4326,35.9287Zm0-8.5557c-107.7275,0-195.06,87.3311-195.06,195.06s87.3321,195.0586,195.06,195.0586,195.06-87.33,195.06-195.0586-87.3311-195.06-195.06-195.06Z"/><path class="cls-1" d="M222.4326,338.37A115.9385,115.9385,0,1,1,338.3721,222.4326,116.069,116.069,0,0,1,222.4326,338.37Zm0-229.8652A113.9268,113.9268,0,1,0,336.36,222.4326,114.0559,114.0559,0,0,0,222.4326,108.5049Z"/><path class="cls-1" d="M222.4326,195.0986a4.2779,4.2779,0,0,1-4.2773-4.2773V138.0146a4.2773,4.2773,0,1,1,8.5546,0v52.8067A4.2786,4.2786,0,0,1,222.4326,195.0986Z"/><path class="cls-1" d="M222.4326,311.1289a4.2779,4.2779,0,0,1-4.2773-4.2774V254.0439a4.2773,4.2773,0,0,1,8.5546,0v52.8076A4.2786,4.2786,0,0,1,222.4326,311.1289Z"/><path class="cls-1" d="M306.8515,226.71H254.0439a4.2773,4.2773,0,0,1,0-8.5546h52.8076a4.2773,4.2773,0,1,1,0,8.5546Z"/><path class="cls-1" d="M190.8213,226.71H138.0137a4.2773,4.2773,0,1,1,0-8.5546h52.8076a4.2773,4.2773,0,0,1,0,8.5546Z"/><path class="cls-1" d="M222.4326,444.8652a4.2781,4.2781,0,0,1-4.2773-4.2783V330.6679a4.2773,4.2773,0,0,1,8.5546,0v109.919A4.2788,4.2788,0,0,1,222.4326,444.8652Z"/><path class="cls-1" d="M222.4326,119.6543a4.2781,4.2781,0,0,1-4.2773-4.2783V4.2783a4.2773,4.2773,0,1,1,8.5546,0V115.376A4.2788,4.2788,0,0,1,222.4326,119.6543Z"/></g></g></svg>
